<svg width="360" height="360" viewBox="0 0 360 360" fill="none" xmlns="http://www.w3.org/2000/svg">
<g clip-path="url(#clip0_141_27)">
<path d="M132.469 53C132.181 53 131.989 52.868 131.893 52.604L123.397 28.808C123.349 28.64 123.361 28.484 123.433 28.34C123.505 28.196 123.613 28.088 123.757 28.016C123.805 28.016 123.841 28.016 123.865 28.016C123.889 27.992 123.925 27.98 123.973 27.98C124.237 27.98 124.417 28.112 124.513 28.376L133.009 52.172C133.129 52.532 133.009 52.796 132.649 52.964L132.469 53ZM135.061 43.676C134.797 43.628 134.617 43.532 134.521 43.388C134.449 43.22 134.437 43.064 134.485 42.92L138.769 30.464C138.889 30.2 139.081 30.068 139.345 30.068C139.441 30.068 139.501 30.08 139.525 30.104C139.693 30.152 139.813 30.248 139.885 30.392C139.957 30.536 139.969 30.692 139.921 30.86L135.637 43.28C135.517 43.544 135.325 43.676 135.061 43.676ZM135.205 53C134.893 52.952 134.701 52.808 134.629 52.568L127.501 31.292C127.381 30.908 127.501 30.656 127.861 30.536C127.909 30.512 127.969 30.5 128.041 30.5C128.353 30.5 128.545 30.632 128.617 30.896L135.205 50.552L142.945 28.412C143.017 28.124 143.197 27.98 143.485 27.98C143.533 27.98 143.569 27.992 143.593 28.016C143.617 28.016 143.653 28.016 143.701 28.016C143.845 28.064 143.953 28.172 144.025 28.34C144.097 28.484 144.109 28.628 144.061 28.772L135.745 52.568C135.673 52.856 135.493 53 135.205 53ZM140.065 29.24C139.801 29.168 139.621 29.06 139.525 28.916C139.429 28.748 139.405 28.568 139.453 28.376C139.525 28.16 139.633 28.04 139.777 28.016C139.921 27.968 140.089 27.944 140.281 27.944C140.449 28.016 140.569 28.136 140.641 28.304C140.713 28.448 140.725 28.604 140.677 28.772V28.808C140.557 29.096 140.353 29.24 140.065 29.24Z" fill="#1F1F1F"/>
<path d="M336.856 230.344C336.904 230.488 336.88 230.644 336.784 230.812C336.664 230.98 336.52 231.064 336.352 231.064L333.616 231.352L335.56 233.26L335.74 233.692L331.672 237.076L329.512 234.304L328.216 236.824L327.496 237.076L323.32 233.908L325.336 231.244L322.636 230.992C322.468 230.944 322.336 230.86 322.24 230.74C322.12 230.596 322.084 230.44 322.132 230.272L323.212 225.448C323.26 225.256 323.368 225.124 323.536 225.052C323.632 225.004 323.716 224.98 323.788 224.98C323.86 224.98 323.944 225.004 324.04 225.052L326.992 226.492L326.344 223.756L332.212 223.036L332.14 226.528L334.876 225.196C335.02 225.148 335.116 225.124 335.164 225.124C335.188 225.124 335.272 225.148 335.416 225.196C335.608 225.292 335.716 225.424 335.74 225.592L336.856 230.344ZM332.212 230.308L335.56 229.948L334.732 226.564L331.528 228.112C331.432 228.16 331.348 228.184 331.276 228.184C331.108 228.184 330.976 228.136 330.88 228.04C330.688 227.872 330.628 227.68 330.7 227.464L331.456 224.224H327.676L328.432 227.464C328.504 227.68 328.432 227.872 328.216 228.04C328.12 228.136 328 228.184 327.856 228.184C327.784 228.184 327.7 228.16 327.604 228.112L324.22 226.456L323.428 229.876L326.848 230.2C327.112 230.224 327.28 230.368 327.352 230.632C327.424 230.872 327.364 231.076 327.172 231.244L324.616 233.404L327.496 235.636L328.972 232.72C329.092 232.504 329.272 232.396 329.512 232.396C329.752 232.396 329.932 232.504 330.052 232.72L331.528 235.708L334.228 233.656L331.852 231.352C331.684 231.16 331.636 230.944 331.708 230.704C331.78 230.488 331.948 230.356 332.212 230.308Z" fill="#1F1F1F"/>
<path d="M329.144 25.992C328.952 26.304 328.724 26.592 328.46 26.856C328.172 27.12 327.752 27.252 327.2 27.252L325.796 27.252C325.244 27.252 324.836 27.12 324.572 26.856C324.284 26.592 324.044 26.304 323.852 25.992L323.6 25.488C323.072 24.384 321.908 23.832 320.108 23.832C318.452 23.832 316.952 23.604 315.608 23.148C314.264 22.668 313.124 21.984 312.188 21.096C311.228 20.208 310.484 19.116 309.956 17.82C309.428 16.524 309.14 15.036 309.092 13.356L309.092 13.104C309.092 12.72 309.224 12.396 309.488 12.132C309.752 11.868 310.088 11.736 310.496 11.736L312.872 11.736C313.208 11.736 313.508 11.856 313.772 12.096C314.036 12.336 314.192 12.624 314.24 12.96L314.24 13.176C314.312 13.872 314.516 14.52 314.852 15.12C315.188 15.696 315.644 16.2 316.22 16.632C316.772 17.04 317.432 17.364 318.2 17.604C318.944 17.844 319.748 17.964 320.612 17.964C321.932 17.964 323.108 18.156 324.14 18.54C325.172 18.924 325.964 19.452 326.516 20.124C327.236 19.356 328.148 18.804 329.252 18.468C330.332 18.132 331.376 17.964 332.384 17.964C333.104 17.964 333.836 17.868 334.58 17.676C335.3 17.484 335.96 17.196 336.56 16.812C337.16 16.404 337.652 15.9 338.036 15.3C338.444 14.7 338.684 13.992 338.756 13.176L338.792 12.96C338.84 12.6 338.996 12.312 339.26 12.096C339.524 11.856 339.824 11.736 340.16 11.736L342.536 11.736C342.92 11.736 343.244 11.868 343.508 12.132C343.796 12.396 343.94 12.72 343.94 13.104L343.94 13.32C343.892 15.024 343.592 16.536 343.04 17.856C342.512 19.152 341.756 20.244 340.772 21.132C339.812 22.02 338.672 22.692 337.352 23.148C336.008 23.604 334.532 23.832 332.924 23.832C331.148 23.832 329.972 24.384 329.396 25.488L329.144 25.992ZM325.796 26.064L327.2 26.064C327.392 26.064 327.548 26.028 327.668 25.956C327.788 25.86 327.932 25.68 328.1 25.416L328.316 24.984C329.108 23.424 330.644 22.644 332.924 22.644C334.412 22.644 335.756 22.44 336.956 22.032C338.156 21.624 339.176 21.024 340.016 20.232C340.88 19.44 341.54 18.468 341.996 17.316C342.476 16.14 342.728 14.796 342.752 13.284L342.752 13.104C342.752 12.984 342.68 12.924 342.536 12.924L340.16 12.924C340.064 12.924 339.992 12.996 339.944 13.14L339.908 13.32C339.812 14.28 339.536 15.132 339.08 15.876C338.624 16.596 338.048 17.196 337.352 17.676C336.656 18.156 335.876 18.528 335.012 18.792C334.148 19.032 333.272 19.152 332.384 19.152C331.976 19.152 331.508 19.2 330.98 19.296C330.428 19.368 329.9 19.5 329.396 19.692C328.868 19.86 328.4 20.1 327.992 20.412C327.56 20.7 327.248 21.06 327.056 21.492C326.936 21.708 326.756 21.816 326.516 21.816C326.276 21.816 326.096 21.696 325.976 21.456C325.64 20.76 324.992 20.208 324.032 19.8C323.072 19.368 321.932 19.152 320.612 19.152C319.724 19.152 318.848 19.032 317.984 18.792C317.096 18.528 316.304 18.156 315.608 17.676C314.912 17.172 314.336 16.548 313.88 15.804C313.424 15.06 313.16 14.208 313.088 13.248L313.052 13.104C313.052 12.984 312.992 12.924 312.872 12.924L310.496 12.924C310.352 12.924 310.28 12.984 310.28 13.104L310.28 13.356C310.304 15.396 310.76 17.148 311.648 18.612C312.536 20.076 313.916 21.192 315.788 21.96C316.412 22.176 317.096 22.344 317.84 22.464C318.56 22.584 319.316 22.644 320.108 22.644C322.388 22.644 323.912 23.412 324.68 24.948L324.896 25.416C325.064 25.68 325.208 25.86 325.328 25.956C325.448 26.028 325.604 26.064 325.796 26.064Z" fill="#1F1F1F"/>
<path d="M53.316 141.095C53.316 140.927 53.376 140.783 53.496 140.663C53.592 140.543 53.724 140.483 53.892 140.483L57.024 140.483C57.192 140.483 57.336 140.543 57.456 140.663C57.552 140.783 57.6 140.927 57.6 141.095L57.6 146.711L81.792 146.711L81.792 141.095C81.792 140.927 81.84 140.783 81.936 140.663C82.056 140.543 82.2 140.483 82.368 140.483L85.464 140.483C85.632 140.483 85.776 140.543 85.896 140.663C86.016 140.783 86.076 140.927 86.076 141.095L86.076 150.383C86.076 150.575 86.016 150.731 85.896 150.851C85.776 150.947 85.632 150.995 85.464 150.995L53.892 150.995C53.508 150.995 53.316 150.791 53.316 150.383L53.316 141.095ZM56.412 141.671L54.504 141.671L54.504 149.807L84.888 149.807L84.888 141.671L82.98 141.671L82.98 147.287C82.98 147.455 82.92 147.599 82.8 147.719C82.68 147.839 82.536 147.899 82.368 147.899L57.024 147.899C56.832 147.899 56.688 147.839 56.592 147.719C56.472 147.599 56.412 147.455 56.412 147.287L56.412 141.671Z" fill="#1F1F1F"/>
<path d="M253.128 112.91C253.128 113.03 253.092 113.15 253.02 113.27C252.924 113.39 252.792 113.474 252.624 113.522C252.456 113.546 252.312 113.51 252.192 113.414L242.832 106.502L242.832 109.31C242.832 109.55 242.724 109.73 242.508 109.85C242.316 109.97 242.112 109.958 241.896 109.814L229.836 100.922C229.668 100.802 229.584 100.646 229.584 100.454C229.584 100.31 229.62 100.19 229.692 100.094C229.956 99.8058 230.244 99.7578 230.556 99.9498L241.644 108.158L241.644 105.35C241.644 105.11 241.752 104.93 241.968 104.81C242.184 104.714 242.4 104.726 242.616 104.846L252.912 112.442C253.056 112.538 253.128 112.694 253.128 112.91ZM254.784 118.094C254.784 118.214 254.748 118.334 254.676 118.454C254.556 118.574 254.424 118.658 254.28 118.706C254.112 118.73 253.968 118.682 253.848 118.562L243.948 111.182C243.804 111.062 243.732 110.906 243.732 110.714C243.732 110.57 243.768 110.45 243.84 110.354C243.96 110.234 244.104 110.162 244.272 110.138C244.416 110.09 244.548 110.126 244.668 110.246L254.568 117.626C254.712 117.722 254.784 117.878 254.784 118.094ZM240.636 103.694C240.636 103.838 240.588 103.958 240.492 104.054C240.396 104.198 240.276 104.282 240.132 104.306C239.964 104.33 239.808 104.294 239.664 104.198L232.5 98.8698C232.332 98.7738 232.248 98.6178 232.248 98.4018C232.248 98.2578 232.284 98.1378 232.356 98.0418C232.476 97.9218 232.62 97.8498 232.788 97.8258C232.932 97.7778 233.064 97.8138 233.184 97.9338L240.384 103.226C240.552 103.346 240.636 103.502 240.636 103.694ZM240.528 115.358C240.528 115.982 240.408 116.57 240.168 117.122C239.928 117.674 239.604 118.166 239.196 118.598C238.764 119.006 238.272 119.33 237.72 119.57C237.168 119.81 236.58 119.93 235.956 119.93C235.332 119.93 234.744 119.81 234.192 119.57C233.616 119.33 233.124 119.006 232.716 118.598C232.308 118.166 231.984 117.674 231.744 117.122C231.504 116.57 231.384 115.982 231.384 115.358C231.384 114.734 231.504 114.146 231.744 113.594C231.984 113.018 232.308 112.526 232.716 112.118C233.124 111.71 233.616 111.386 234.192 111.146C234.744 110.906 235.332 110.786 235.956 110.786C236.58 110.786 237.168 110.906 237.72 111.146C238.272 111.386 238.764 111.71 239.196 112.118C239.604 112.526 239.928 113.018 240.168 113.594C240.408 114.146 240.528 114.734 240.528 115.358ZM232.572 115.358C232.572 116.294 232.908 117.098 233.58 117.77C234.228 118.418 235.02 118.742 235.956 118.742C236.892 118.742 237.696 118.418 238.368 117.77C239.016 117.098 239.34 116.294 239.34 115.358C239.34 114.422 239.016 113.63 238.368 112.982C237.696 112.31 236.892 111.974 235.956 111.974C235.02 111.974 234.228 112.31 233.58 112.982C232.908 113.63 232.572 114.422 232.572 115.358ZM237.792 115.358C237.792 115.862 237.612 116.294 237.252 116.654C236.892 117.014 236.46 117.194 235.956 117.194C235.428 117.194 234.984 117.014 234.624 116.654C234.264 116.294 234.084 115.862 234.084 115.358C234.084 114.854 234.264 114.422 234.624 114.062C234.984 113.678 235.428 113.486 235.956 113.486C236.46 113.486 236.892 113.678 237.252 114.062C237.612 114.422 237.792 114.854 237.792 115.358ZM235.272 115.358C235.272 115.55 235.344 115.706 235.488 115.826C235.608 115.946 235.764 116.006 235.956 116.006C236.148 116.006 236.304 115.946 236.424 115.826C236.544 115.706 236.604 115.55 236.604 115.358C236.604 115.166 236.544 115.01 236.424 114.89C236.304 114.746 236.148 114.674 235.956 114.674C235.764 114.674 235.608 114.746 235.488 114.89C235.344 115.01 235.272 115.166 235.272 115.358ZM252.984 99.6258C252.984 100.25 252.864 100.838 252.624 101.39C252.384 101.942 252.06 102.434 251.652 102.866C251.22 103.274 250.728 103.598 250.176 103.838C249.624 104.078 249.036 104.198 248.412 104.198C247.788 104.198 247.2 104.078 246.648 103.838C246.072 103.598 245.58 103.274 245.172 102.866C244.764 102.434 244.44 101.942 244.2 101.39C243.96 100.838 243.84 100.25 243.84 99.6258C243.84 99.0018 243.96 98.4138 244.2 97.8618C244.44 97.2858 244.764 96.7938 245.172 96.3858C245.58 95.9778 246.072 95.6538 246.648 95.4138C247.2 95.1738 247.788 95.0538 248.412 95.0538C249.036 95.0538 249.624 95.1738 250.176 95.4138C250.728 95.6538 251.22 95.9778 251.652 96.3858C252.06 96.7938 252.384 97.2858 252.624 97.8618C252.864 98.4138 252.984 99.0018 252.984 99.6258ZM245.028 99.6258C245.028 100.082 245.124 100.526 245.316 100.958C245.484 101.366 245.724 101.726 246.036 102.038C246.348 102.326 246.708 102.566 247.116 102.758C247.524 102.926 247.956 103.01 248.412 103.01C249.348 103.01 250.152 102.686 250.824 102.038C251.472 101.366 251.796 100.562 251.796 99.6258C251.796 98.6898 251.472 97.8978 250.824 97.2498C250.152 96.5778 249.348 96.2418 248.412 96.2418C247.956 96.2418 247.524 96.3378 247.116 96.5298C246.708 96.6978 246.348 96.9378 246.036 97.2498C245.724 97.5378 245.484 97.8858 245.316 98.2938C245.124 98.7018 245.028 99.1458 245.028 99.6258ZM250.284 99.6258C250.284 100.13 250.104 100.574 249.744 100.958C249.384 101.318 248.94 101.498 248.412 101.498C247.908 101.498 247.476 101.318 247.116 100.958C246.756 100.574 246.576 100.13 246.576 99.6258C246.576 99.1218 246.756 98.6898 247.116 98.3298C247.476 97.9698 247.908 97.7898 248.412 97.7898C248.94 97.7898 249.384 97.9698 249.744 98.3298C250.104 98.6898 250.284 99.1218 250.284 99.6258ZM247.764 99.6258C247.764 99.8178 247.824 99.9858 247.944 100.13C248.064 100.25 248.22 100.31 248.412 100.31C248.604 100.31 248.772 100.25 248.916 100.13C249.036 99.9858 249.096 99.8178 249.096 99.6258C249.096 99.4338 249.036 99.2778 248.916 99.1578C248.772 99.0378 248.604 98.9778 248.412 98.9778C248.22 98.9778 248.064 99.0378 247.944 99.1578C247.824 99.2778 247.764 99.4338 247.764 99.6258ZM254.82 114.098C254.748 114.362 254.64 114.542 254.496 114.638C254.328 114.734 254.148 114.758 253.956 114.71C253.668 114.59 253.524 114.386 253.524 114.098C253.524 114.002 253.536 113.93 253.56 113.882C253.608 113.714 253.716 113.594 253.884 113.522C254.028 113.45 254.184 113.438 254.352 113.486L254.388 113.486C254.676 113.606 254.82 113.81 254.82 114.098Z" fill="#1F1F1F"/>
<path d="M236.244 295.538C236.244 295.154 236.436 294.962 236.82 294.962L240.204 294.962C240.588 294.962 240.78 295.154 240.78 295.538L240.78 298.634L245.352 299.354L245.352 297.446C245.352 297.062 245.544 296.87 245.928 296.87L249.312 296.87C249.48 296.87 249.624 296.93 249.744 297.05C249.864 297.146 249.924 297.278 249.924 297.446L249.924 300.074L253.092 300.578C253.428 300.626 253.596 300.818 253.596 301.154L253.596 304.538C253.596 304.706 253.524 304.85 253.38 304.97C253.236 305.09 253.08 305.138 252.912 305.114L249.924 304.646L249.924 307.994L253.092 308.498C253.428 308.546 253.596 308.738 253.596 309.074L253.596 312.458C253.596 312.65 253.524 312.806 253.38 312.926C253.284 313.022 253.128 313.07 252.912 313.07L249.924 312.602L249.924 315.446C249.924 315.614 249.864 315.758 249.744 315.878C249.624 315.974 249.48 316.022 249.312 316.022L245.928 316.022C245.544 316.022 245.352 315.83 245.352 315.446L245.352 311.882L240.78 311.162L240.78 313.538C240.78 313.922 240.588 314.114 240.204 314.114L236.82 314.114C236.436 314.114 236.244 313.922 236.244 313.538L236.244 310.442L232.536 309.866C232.2 309.818 232.032 309.626 232.032 309.29L232.032 305.906C232.032 305.714 232.104 305.57 232.248 305.474C232.344 305.33 232.5 305.282 232.716 305.33L236.244 305.87L236.244 302.522L232.536 301.946C232.2 301.85 232.032 301.646 232.032 301.334L232.032 297.986C232.032 297.77 232.104 297.614 232.248 297.518C232.344 297.422 232.5 297.374 232.716 297.374L236.244 297.914L236.244 295.538ZM239.592 296.15L237.432 296.15L237.432 298.634C237.432 298.778 237.36 298.922 237.216 299.066C237.048 299.186 236.88 299.234 236.712 299.21L233.22 298.67L233.22 300.83L236.928 301.406C237.264 301.478 237.432 301.682 237.432 302.018L237.432 306.554C237.432 306.722 237.36 306.878 237.216 307.022C237.096 307.118 236.928 307.166 236.712 307.166L233.22 306.59L233.22 308.786L236.928 309.362C237.264 309.41 237.432 309.602 237.432 309.938L237.432 312.926L239.592 312.926L239.592 310.478C239.592 310.262 239.664 310.106 239.808 310.01C239.952 309.89 240.108 309.854 240.276 309.902L246.036 310.766C246.372 310.838 246.54 311.042 246.54 311.378L246.54 314.834L248.736 314.834L248.736 311.882C248.736 311.69 248.808 311.546 248.952 311.45C249.072 311.306 249.228 311.258 249.42 311.306L252.408 311.774L252.408 309.614L249.24 309.11C248.904 309.062 248.736 308.87 248.736 308.534L248.736 303.962C248.736 303.746 248.808 303.59 248.952 303.494C249.048 303.398 249.204 303.35 249.42 303.35L252.408 303.818L252.408 301.658L249.24 301.154C248.904 301.106 248.736 300.914 248.736 300.578L248.736 298.058L246.54 298.058L246.54 300.038C246.54 300.23 246.468 300.386 246.324 300.506C246.228 300.602 246.072 300.65 245.856 300.65L240.096 299.75C239.76 299.654 239.592 299.45 239.592 299.138L239.592 296.15ZM239.592 302.522C239.592 302.33 239.664 302.186 239.808 302.09C239.976 301.97 240.132 301.922 240.276 301.946L246.036 302.846C246.372 302.894 246.54 303.086 246.54 303.422L246.54 307.994C246.54 308.162 246.468 308.306 246.324 308.426C246.228 308.57 246.072 308.618 245.856 308.57L240.096 307.67C239.76 307.622 239.592 307.43 239.592 307.094L239.592 302.522ZM245.352 303.926L240.78 303.242L240.78 306.59L245.352 307.31L245.352 303.926Z" fill="#1F1F1F"/>
<path d="M90.556 281.247C90.556 282.687 90.256 283.911 89.656 284.919C89.08 285.903 88.12 286.695 86.776 287.295C85.576 287.847 84.052 288.243 82.204 288.483C80.332 288.723 77.956 288.843 75.076 288.843C72.196 288.843 69.82 288.723 67.948 288.483C66.076 288.243 64.552 287.847 63.376 287.295C62.032 286.695 61.072 285.903 60.496 284.919C59.896 283.911 59.596 282.687 59.596 281.247C59.596 280.839 59.752 280.527 60.064 280.311C60.304 280.095 60.616 279.987 61 279.987L63.016 279.987C63.352 279.987 63.664 280.095 63.952 280.311C64.24 280.551 64.396 280.827 64.42 281.139C64.54 282.339 65.38 283.167 66.94 283.623C68.788 284.175 71.5 284.451 75.076 284.451C78.628 284.451 81.328 284.175 83.176 283.623C84.76 283.167 85.612 282.351 85.732 281.175C85.756 280.839 85.912 280.551 86.2 280.311C86.488 280.095 86.8 279.987 87.136 279.987L89.152 279.987C89.536 279.987 89.848 280.095 90.088 280.311C90.4 280.527 90.556 280.839 90.556 281.247ZM60.712 281.247C60.712 282.495 60.964 283.527 61.468 284.343C61.972 285.135 62.764 285.783 63.844 286.287C64.948 286.767 66.4 287.127 68.2 287.367C69.976 287.607 72.268 287.727 75.076 287.727C77.86 287.727 80.152 287.607 81.952 287.367C83.752 287.127 85.204 286.767 86.308 286.287C87.388 285.783 88.18 285.135 88.684 284.343C89.188 283.527 89.44 282.495 89.44 281.247C89.368 281.151 89.272 281.103 89.152 281.103L87.136 281.103C86.776 282.111 86.344 282.891 85.84 283.443C85.336 283.971 84.556 284.391 83.5 284.703C81.628 285.279 78.82 285.567 75.076 285.567C74.356 285.567 73.504 285.555 72.52 285.531C71.512 285.507 70.492 285.435 69.46 285.315C68.428 285.171 67.456 284.955 66.544 284.667C65.608 284.355 64.852 283.935 64.276 283.407C63.7 282.831 63.376 282.123 63.304 281.283L61 281.103C60.88 281.103 60.796 281.127 60.748 281.175L60.712 281.247Z" fill="#1F1F1F"/>
<path d="M153.68 196.85C153.68 196.466 153.872 196.274 154.256 196.274L157.64 196.274C158.024 196.274 158.216 196.466 158.216 196.85L158.216 203.222L164.588 203.222C164.756 203.222 164.9 203.282 165.02 203.402C165.14 203.498 165.2 203.642 165.2 203.834L165.2 207.182C165.2 207.374 165.14 207.53 165.02 207.65C164.9 207.746 164.756 207.794 164.588 207.794L158.216 207.794L158.216 214.166C158.216 214.55 158.024 214.742 157.64 214.742L154.256 214.742C153.872 214.742 153.68 214.55 153.68 214.166L153.68 207.794L147.308 207.794C147.14 207.794 146.996 207.746 146.876 207.65C146.756 207.53 146.696 207.374 146.696 207.182L146.696 203.834C146.696 203.642 146.756 203.498 146.876 203.402C146.996 203.282 147.14 203.222 147.308 203.222L153.68 203.222L153.68 196.85ZM157.028 197.462L154.868 197.462L154.868 203.834C154.868 204.002 154.808 204.146 154.688 204.266C154.568 204.362 154.424 204.41 154.256 204.41L147.884 204.41L147.884 206.606L154.256 206.606C154.424 206.606 154.568 206.666 154.688 206.786C154.808 206.882 154.868 207.014 154.868 207.182L154.868 213.554L157.028 213.554L157.028 207.182C157.028 207.014 157.088 206.882 157.208 206.786C157.328 206.666 157.472 206.606 157.64 206.606L164.012 206.606L164.012 204.41L157.64 204.41C157.472 204.41 157.328 204.362 157.208 204.266C157.088 204.146 157.028 204.002 157.028 203.834L157.028 197.462Z" fill="#1F1F1F"/>
</g>
<defs>
<clipPath id="clip0_141_27">
<rect width="360" height="360" fill="white"/>
</clipPath>
</defs>
</svg>
